<svg xmlns="http://www.w3.org/2000/svg" xmlns:xlink="http://www.w3.org/1999/xlink" width="500" height="100" viewBox="0 0 500 100" fill="none"><g ><path     fill="#94A3B8"  d="M28.0941 60.944L36.8621 37.52L39.6141 37.52L30.8461 60.944L28.0941 60.944ZM40.5741 60.944L49.3421 37.52L52.0941 37.52L43.3261 60.944L40.5741 60.944ZM125.495 61.392Q124.407 61.392 123.639 60.592Q122.871 59.792 122.871 58.672Q122.871 57.552 123.639 56.752Q124.407 55.952 125.495 55.952Q126.615 55.952 127.399 56.752Q128.183 57.552 128.183 58.672Q128.183 59.792 127.399 60.592Q126.615 61.392 125.495 61.392ZM271.881 61.392Q270.793 61.392 270.025 60.592Q269.257 59.792 269.257 58.672Q269.257 57.552 270.025 56.752Q270.793 55.952 271.881 55.952Q273.001 55.952 273.785 56.752Q274.569 57.552 274.569 58.672Q274.569 59.792 273.785 60.592Q273.001 61.392 271.881 61.392ZM392.322 60.944L401.09 37.52L403.842 37.52L395.074 60.944L392.322 60.944ZM404.258 41.232Q405.058 38.896 406.994 37.6Q408.93 36.304 411.458 36.304Q413.346 36.304 414.786 37.024Q416.226 37.744 417.026 39.008Q417.826 40.272 417.826 41.84Q417.826 43.44 417.074 44.512Q416.322 45.584 414.818 46.896Q413.762 47.888 413.122 48.592Q412.482 49.296 412.05 50.272Q411.618 51.248 411.618 52.528Q411.618 53.424 411.842 54.352L409.634 54.352Q409.218 52.912 409.218 51.696Q409.218 50.384 409.65 49.376Q410.082 48.368 410.69 47.68Q411.298 46.992 412.322 46.032Q413.57 44.912 414.178 44.064Q414.786 43.216 414.786 42.064Q414.786 40.624 413.794 39.76Q412.802 38.896 411.202 38.896Q407.938 38.896 406.466 42.512L404.258 41.232ZM411.01 61.296Q410.274 61.296 409.746 60.752Q409.218 60.208 409.218 59.472Q409.218 58.704 409.746 58.16Q410.274 57.616 411.01 57.616Q411.778 57.616 412.306 58.16Q412.834 58.704 412.834 59.472Q412.834 60.208 412.306 60.752Q411.778 61.296 411.01 61.296ZM434.754 47.216L419.778 47.216L419.778 44.784L434.754 44.784L434.754 47.216ZM434.754 53.904L419.778 53.904L419.778 51.472L434.754 51.472L434.754 53.904Z"></path><path     fill="#0F172A"  d="M70.0141 37.52L74.6541 37.52L74.6541 51.472Q74.6541 54.48 73.4701 56.704Q72.2861 58.928 70.0461 60.128Q67.8061 61.328 64.7341 61.328Q61.6301 61.328 59.3901 60.128Q57.1501 58.928 55.9661 56.704Q54.7821 54.48 54.7821 51.472L54.7821 37.52L59.4221 37.52L59.4221 50.352Q59.4221 53.744 60.8141 55.408Q62.2061 57.072 64.7341 57.072Q67.2301 57.072 68.6221 55.408Q70.0141 53.744 70.0141 50.352L70.0141 37.52ZM98.7821 60.944L93.2461 60.912L87.5501 52.496L87.3581 52.496L83.9661 52.496L83.9661 60.944L79.3261 60.944L79.3261 37.52L87.4221 37.52Q90.1741 37.52 92.2541 38.448Q94.3341 39.376 95.4541 41.088Q96.5741 42.8 96.5741 45.008Q96.5741 47.248 95.4221 48.944Q94.2701 50.64 92.1901 51.536L98.7821 60.944ZM83.9661 41.456L83.9661 48.56L86.8781 48.56Q88.9261 48.56 90.2861 47.68Q91.6461 46.8 91.6461 45.008Q91.6461 43.184 90.3021 42.32Q88.9581 41.456 86.8781 41.456L83.9661 41.456ZM101.246 37.52L105.886 37.52L105.886 56.784L116.542 56.784L116.542 60.944L101.246 60.944L101.246 37.52ZM151.952 54.16Q151.952 56.56 150.72 58.176Q149.488 59.792 147.52 60.56Q145.552 61.328 143.312 61.328Q140.048 61.328 137.424 59.808Q134.8 58.288 133.936 55.504L137.712 53.36Q138.48 55.152 139.952 56.144Q141.424 57.136 143.472 57.136Q145.136 57.136 146.112 56.464Q147.088 55.792 147.088 54.512Q147.088 53.488 146.432 52.816Q145.776 52.144 144.8 51.76Q143.824 51.376 142.128 50.864Q139.856 50.192 138.416 49.536Q136.976 48.88 135.952 47.568Q134.928 46.256 134.928 44.112Q134.928 41.84 136.128 40.256Q137.328 38.672 139.296 37.888Q141.264 37.104 143.536 37.104Q146.64 37.104 148.848 38.512Q151.056 39.92 151.696 42.32L147.92 44.464Q147.344 42.96 146.192 42.112Q145.04 41.264 143.312 41.264Q141.744 41.264 140.768 41.984Q139.792 42.704 139.792 43.888Q139.792 44.784 140.4 45.376Q141.008 45.968 141.952 46.336Q142.896 46.704 144.496 47.184Q146.8 47.856 148.304 48.544Q149.808 49.232 150.88 50.592Q151.952 51.952 151.952 54.16ZM169.232 51.056L159.728 51.056L159.728 56.88L170.704 56.88L170.704 60.944L155.088 60.944L155.088 37.52L170.352 37.52L170.352 41.552L159.728 41.552L159.728 47.056L169.232 47.056L169.232 51.056ZM185.52 37.52L194.992 60.944L190.064 60.944L188.016 55.6L178.896 55.6L176.912 60.944L172.272 60.944L181.456 37.52L185.52 37.52ZM186.512 51.632L183.376 43.408L180.336 51.632L186.512 51.632ZM217.136 60.944L211.6 60.912L205.904 52.496L205.712 52.496L202.32 52.496L202.32 60.944L197.68 60.944L197.68 37.52L205.776 37.52Q208.528 37.52 210.608 38.448Q212.688 39.376 213.808 41.088Q214.928 42.8 214.928 45.008Q214.928 47.248 213.776 48.944Q212.624 50.64 210.544 51.536L217.136 60.944ZM202.32 41.456L202.32 48.56L205.232 48.56Q207.28 48.56 208.64 47.68Q210 46.8 210 45.008Q210 43.184 208.656 42.32Q207.312 41.456 205.232 41.456L202.32 41.456ZM229.616 57.072Q231.312 57.072 232.544 56.176Q233.776 55.28 234.512 53.68L238.384 55.92Q237.52 58.288 235.216 59.808Q232.912 61.328 229.712 61.328Q226.608 61.328 224.048 59.824Q221.488 58.32 219.984 55.552Q218.48 52.784 218.48 49.2Q218.48 45.616 219.968 42.864Q221.456 40.112 224.032 38.608Q226.608 37.104 229.712 37.104Q232.912 37.104 235.216 38.624Q237.52 40.144 238.384 42.512L234.512 44.752Q233.776 43.152 232.544 42.256Q231.312 41.36 229.616 41.36Q227.824 41.36 226.416 42.32Q225.008 43.28 224.192 45.056Q223.376 46.832 223.376 49.2Q223.376 51.568 224.192 53.36Q225.008 55.152 226.416 56.112Q227.824 57.072 229.616 57.072ZM246.032 46.736L256.592 46.736L256.592 37.52L261.264 37.52L261.264 60.944L256.592 60.944L256.592 50.864L246.032 50.864L246.032 60.944L241.392 60.944L241.392 37.52L246.032 37.52L246.032 46.736ZM293.698 47.088L303.65 60.944L297.666 60.944L290.37 50.64L287.17 54.064L287.17 60.944L282.53 60.944L282.53 37.52L287.17 37.52L287.17 48.432L296.898 37.52L302.69 37.52L293.698 47.088ZM310.914 60.944L306.274 60.944L306.274 37.52L310.914 37.52L310.914 60.944ZM315.81 37.52L320.45 37.52L320.45 56.784L331.106 56.784L331.106 60.944L315.81 60.944L315.81 37.52ZM334.37 37.52L339.01 37.52L339.01 56.784L349.666 56.784L349.666 60.944L334.37 60.944L334.37 37.52ZM367.074 51.056L357.57 51.056L357.57 56.88L368.546 56.88L368.546 60.944L352.93 60.944L352.93 37.52L368.194 37.52L368.194 41.552L357.57 41.552L357.57 47.056L367.074 47.056L367.074 51.056ZM391.842 60.944L386.306 60.912L380.61 52.496L380.418 52.496L377.026 52.496L377.026 60.944L372.386 60.944L372.386 37.52L380.482 37.52Q383.234 37.52 385.314 38.448Q387.394 39.376 388.514 41.088Q389.634 42.8 389.634 45.008Q389.634 47.248 388.482 48.944Q387.33 50.64 385.25 51.536L391.842 60.944ZM377.026 41.456L377.026 48.56L379.938 48.56Q381.986 48.56 383.346 47.68Q384.706 46.8 384.706 45.008Q384.706 43.184 383.362 42.32Q382.018 41.456 379.938 41.456L377.026 41.456Z"></path></g><path d="M459.589 40.3446L460.651 46.4267L467.04 47.3104L461.83 51.298L464.207 57.1111L458.232 54.6819L454.412 59.6631L453.35 53.581L446.961 52.6973L452.171 48.7098L449.794 42.8966L455.769 45.3258L459.589 40.3446ZM462.177 30.6854L454.397 40.4028L442.782 35.8412L447.341 47.4157L437.798 55.2114L450.138 57.0685L451.824 69.3224L459.604 59.6049L471.271 63.9734L466.66 52.5921L476.203 44.7963L463.863 42.9393L462.177 30.6854Z"   fill="#991B1B" ></path></svg>